<?xml version="1.0" encoding="utf-8"?>
<!-- Generator: Adobe Illustrator 15.0.0, SVG Export Plug-In . SVG Version: 6.00 Build 0)  -->
<!DOCTYPE svg PUBLIC "-//W3C//DTD SVG 1.1//EN" "http://www.w3.org/Graphics/SVG/1.1/DTD/svg11.dtd">
<svg version="1.1" id="Layer_1" xmlns="http://www.w3.org/2000/svg" xmlns:xlink="http://www.w3.org/1999/xlink" x="0px" y="0px"
	 width="19.75px" height="27.125px" viewBox="0 0 19.75 27.125" enable-background="new 0 0 19.75 27.125" xml:space="preserve">
<g>
	<path opacity="0.34" fill="#A8A8A8" d="M17.227,0.738h-5.953H5.322c-1.142,0-2.067,0.924-2.067,2.065L5.441,14.25
		c0.357,1.162,0.925,1.338,2.067,1.338h1.083l2.363,11.014h0.639l2.363-11.014h1.083c1.143,0,1.751-0.248,2.066-1.338l2.187-11.447
		C19.292,1.662,18.369,0.738,17.227,0.738z"/>
	<g>
		<g>
			<polygon fill="#D9313E" points="9.013,26.602 8.375,26.602 3.254,2.738 14.134,2.738 			"/>
			<path fill="#F7F7F7" d="M14.526,14.25c-0.315,1.09-0.924,1.338-2.066,1.338H4.928c-1.143,0-1.71-0.176-2.067-1.338L0.674,2.803
				c0-1.142,0.926-2.065,2.067-2.065h11.905c1.142,0,2.065,0.924,2.065,2.065L14.526,14.25z"/>
		</g>
		<path opacity="0.49" fill="#A8A8A8" d="M8.694,15.588h3.766c1.143,0,1.751-0.248,2.066-1.338l2.187-11.447
			c0-1.142-0.924-2.065-2.065-2.065H8.694V15.588z"/>
	</g>
</g>
</svg>
