<?xml version="1.0" encoding="utf-8"?>
<!-- Generator: Adobe Illustrator 15.0.0, SVG Export Plug-In . SVG Version: 6.00 Build 0)  -->
<!DOCTYPE svg PUBLIC "-//W3C//DTD SVG 1.1//EN" "http://www.w3.org/Graphics/SVG/1.1/DTD/svg11.dtd">
<svg version="1.1" id="Layer_1" xmlns="http://www.w3.org/2000/svg" xmlns:xlink="http://www.w3.org/1999/xlink" x="0px" y="0px"
	 width="171.154px" height="170.968px" viewBox="0 0 171.154 170.968" enable-background="new 0 0 171.154 170.968"
	 xml:space="preserve">
<g>
	<g>
		<g id="XMLID_1_">
			<g>
				<path fill="#32AAB7" d="M85.575,85.492v77.294c-42.694,0-77.305-34.611-77.305-77.294H85.575z"/>
				<path fill="#66B585" d="M162.881,85.492c0,42.683-34.61,77.294-77.305,77.294V85.492H162.881z"/>
				<path fill="#E5C438" d="M85.575,8.187v77.305H8.27C8.27,42.798,42.882,8.187,85.575,8.187z"/>
				<path fill="#F76383" d="M162.881,85.492H85.575V8.187C128.269,8.187,162.881,42.798,162.881,85.492z"/>
			</g>
		</g>
		
			<circle fill="none" stroke="#FFFFFF" stroke-width="0.27" stroke-linecap="round" stroke-linejoin="round" cx="85.577" cy="85.485" r="73.436"/>
	</g>
	<g>
		<circle fill="none" stroke="#FFFFFF" stroke-width="0.75" stroke-miterlimit="10" cx="85.576" cy="85.485" r="85.04"/>
		
			<line fill="none" stroke="#FFFFFF" stroke-width="0.75" stroke-miterlimit="10" x1="164.663" y1="85.485" x2="170.616" y2="85.485"/>
		<line fill="none" stroke="#FFFFFF" stroke-width="0.75" stroke-miterlimit="10" x1="0.537" y1="85.485" x2="6.49" y2="85.485"/>
		
			<line fill="none" stroke="#FFFFFF" stroke-width="0.75" stroke-miterlimit="10" x1="85.578" y1="164.57" x2="85.578" y2="170.523"/>
		<line fill="none" stroke="#FFFFFF" stroke-width="0.75" stroke-miterlimit="10" x1="85.578" y1="0.444" x2="85.578" y2="6.397"/>
	</g>
	<g enable-background="new    ">
		<path fill="#FFFFFF" d="M138.387,27.073l0.606,0.561l2.878-3.11l-0.607-0.561l0.229-0.247l0.885,0.818l-3.106,3.357l0.607,0.562
			l-0.224,0.242l-1.491-1.379L138.387,27.073z"/>
	</g>
	<g enable-background="new    ">
		<path fill="#FFFFFF" d="M29.347,23.583l2.32,2.51l0.453-0.418l0.256,0.277l-0.452,0.418l0.751,0.812l-0.277,0.257l-0.752-0.812
			l-2.206,2.04l-0.365-0.282l-0.185-4.379L29.347,23.583z M29.26,24.046l0.165,4.121l1.965-1.816L29.26,24.046z"/>
	</g>
	<g enable-background="new    ">
		<path fill="#FFFFFF" d="M28.423,145.736c-0.716,0.72-1.603,0.194-2.188-0.379c-0.831-0.813-0.889-1.665-0.385-2.19
			c0.387-0.396,1.056-0.417,1.54-0.091c-0.342-0.492-0.384-1.219,0.037-1.649c0.539-0.55,1.436-0.535,2.316,0.327
			c0.606,0.594,1.2,1.518,0.455,2.279l-0.259-0.255c0.611-0.636,0-1.342-0.445-1.778c-0.735-0.721-1.414-0.729-1.801-0.333
			c-0.357,0.365-0.364,1.113,0.355,1.818l0.581,0.568l-0.221,0.226l-0.565-0.554c-0.696-0.681-1.413-0.649-1.747-0.317
			c-0.362,0.359-0.341,1.037,0.355,1.719c0.425,0.416,1.134,0.954,1.717,0.359L28.423,145.736z"/>
	</g>
	<g enable-background="new    ">
		<path fill="#FFFFFF" d="M146.053,141.885c0.736,0.739,0.262,1.669-0.363,2.293c-0.64,0.639-1.596,1.069-2.348,0.325
			c-0.709-0.709-0.281-1.709,0.333-2.322c0.501-0.51,0.972-1.217,0.378-1.812l-0.529-0.529l-2.389,2.385l-0.258-0.258l2.651-2.647
			l0.782,0.782c0.768,0.77,0.256,1.675-0.383,2.312c-0.451,0.451-0.922,1.258-0.338,1.843c0.608,0.609,1.391,0.164,1.867-0.312
			c0.461-0.459,0.906-1.223,0.332-1.797L146.053,141.885z"/>
	</g>
	<g>
		<g>
			
				<circle fill="none" stroke="#FFFFFF" stroke-width="0.27" stroke-linecap="round" stroke-linejoin="round" cx="85.577" cy="85.485" r="73.437"/>
		</g>
	</g>
</g>
</svg>
