<?xml version="1.0" encoding="utf-8"?>
<!-- Generator: Adobe Illustrator 15.0.0, SVG Export Plug-In . SVG Version: 6.00 Build 0)  -->
<!DOCTYPE svg PUBLIC "-//W3C//DTD SVG 1.1//EN" "http://www.w3.org/Graphics/SVG/1.1/DTD/svg11.dtd">
<svg version="1.1" id="Layer_1" xmlns="http://www.w3.org/2000/svg" xmlns:xlink="http://www.w3.org/1999/xlink" x="0px" y="0px"
	 width="171.154px" height="170.968px" viewBox="0 0 171.154 170.968" enable-background="new 0 0 171.154 170.968"
	 xml:space="preserve">
<g>
		
	<g>
		<circle opacity="0.24" fill="#717071" cx="88.477" cy="88.922" r="14.191"/>
		<g>
			<circle fill="#FFFFFF" cx="85.577" cy="85.483" r="14.191"/>
			<circle fill="#DD3E3A" cx="85.577" cy="85.483" r="12.9"/>
			<g>
				<path fill="#FFFFFF" d="M83.267,83.509c-0.621-0.594-1.545-0.924-2.35-0.924c-1.979,0-3.181,1.506-3.181,3.406
					c0,1.518,0.884,3.088,3.181,3.088c0.727,0,1.359-0.158,2.086-0.738v-1.637H80.64v-1.559h3.96v3.895
					c-0.911,1.043-2.06,1.662-3.683,1.662c-3.471,0-4.883-2.283-4.883-4.711c0-2.6,1.623-5.002,4.883-5.002
					c1.24,0,2.481,0.475,3.432,1.412L83.267,83.509z"/>
				<path fill="#FFFFFF" d="M95.107,85.925c-0.027,2.389-1.492,4.778-4.738,4.778c-3.248,0-4.752-2.336-4.752-4.764
					c0-2.43,1.557-4.871,4.752-4.871C93.549,81.068,95.133,83.509,95.107,85.925z M87.334,85.964
					c0.039,1.518,0.857,3.143,3.035,3.143s2.996-1.637,3.021-3.155c0.027-1.559-0.844-3.301-3.021-3.301
					S87.293,84.408,87.334,85.964z"/>
			</g>
		</g>
	</g>
</g>
</svg>
