<?xml version="1.0" encoding="utf-8"?>
<!-- Generator: Adobe Illustrator 15.0.0, SVG Export Plug-In . SVG Version: 6.00 Build 0)  -->
<!DOCTYPE svg PUBLIC "-//W3C//DTD SVG 1.1//EN" "http://www.w3.org/Graphics/SVG/1.1/DTD/svg11.dtd">
<svg version="1.1" id="Layer_1" xmlns="http://www.w3.org/2000/svg" xmlns:xlink="http://www.w3.org/1999/xlink" x="0px" y="0px"
	 width="171.154px" height="170.968px" viewBox="0 0 171.154 170.968" enable-background="new 0 0 171.154 170.968"
	 xml:space="preserve">
<g>
	<g>
		<g id="XMLID_16_">
			<g>
				<path fill="#ED7085" d="M85.567,85.497V8.191c28.611,0,53.591,15.544,66.953,38.636l-0.011,0.011L85.567,85.497z"/>
				<path fill="#66B585" d="M18.625,124.144l66.942-38.647v77.293C56.956,162.79,31.977,147.247,18.625,124.144z"/>
				<path fill="#32AAB7" d="M18.625,46.838l66.942,38.658l-66.942,38.647C12.037,112.777,8.273,99.579,8.273,85.497
					S12.037,58.215,18.625,46.838z"/>
				<path fill="#E58E53" d="M85.567,85.497l66.942-38.658l0.011-0.011c6.589,11.377,10.352,24.586,10.352,38.669
					s-3.763,27.292-10.352,38.658l-0.011-0.011L85.567,85.497z"/>
				<path fill="#5B7BC1" d="M85.567,8.191v77.305L18.625,46.838C31.977,23.735,56.956,8.191,85.567,8.191z"/>
				<path fill="#D8BD4A" d="M85.567,162.79V85.497l66.942,38.647l0.011,0.011C139.158,147.247,114.179,162.79,85.567,162.79z"/>
			</g>
			<g>
			</g>
		</g>
	</g>
	<g>
		<circle fill="none" stroke="#FFFFFF" stroke-width="0.75" stroke-miterlimit="10" cx="85.577" cy="85.485" r="85.04"/>
		
			<line fill="none" stroke="#FFFFFF" stroke-width="0.75" stroke-miterlimit="10" x1="85.576" y1="164.57" x2="85.576" y2="170.523"/>
		<line fill="none" stroke="#FFFFFF" stroke-width="0.75" stroke-miterlimit="10" x1="85.576" y1="0.444" x2="85.576" y2="6.4"/>
		
			<line fill="none" stroke="#FFFFFF" stroke-width="0.75" stroke-miterlimit="10" x1="154.076" y1="125.035" x2="159.223" y2="128.006"/>
		
			<line fill="none" stroke="#FFFFFF" stroke-width="0.75" stroke-miterlimit="10" x1="11.931" y1="42.965" x2="17.077" y2="45.937"/>
		
			<line fill="none" stroke="#FFFFFF" stroke-width="0.75" stroke-miterlimit="10" x1="17.077" y1="125.035" x2="11.931" y2="128.006"/>
		
			<line fill="none" stroke="#FFFFFF" stroke-width="0.75" stroke-miterlimit="10" x1="159.223" y1="42.965" x2="154.078" y2="45.935"/>
		<path fill="none" stroke="#FFFFFF" stroke-width="0.75" stroke-miterlimit="10" d="M85.578,85.485"/>
	</g>
	<g>
		<path fill="#FFFFFF" d="M125.623,17.682h0.826v-4.237h-0.826v-0.336h1.203v4.573h0.828v0.329h-2.031V17.682z"/>
	</g>
	<g>
		<path fill="#FFFFFF" d="M44.642,15.734c0.392-0.561,0.959-0.693,1.568-0.693c0.925,0,1.912,0.428,1.912,1.513
			c0,1.114-0.994,1.513-1.919,1.513c-0.932,0-1.934-0.42-1.934-1.526v-2.144c0-0.924,0.932-1.358,1.863-1.358
			c0.98,0,1.807,0.413,1.87,1.239h-0.378c-0.042-0.588-0.687-0.903-1.492-0.903c-0.742,0-1.491,0.344-1.491,1.022V15.734z
			 M47.751,16.554c0-0.806-0.841-1.169-1.541-1.169s-1.555,0.356-1.562,1.162c-0.007,0.883,0.854,1.163,1.555,1.163
			S47.751,17.45,47.751,16.554z"/>
	</g>
	<g>
		<path fill="#FFFFFF" d="M47.478,154.019v3.418h0.616v0.378h-0.616v1.106H47.1v-1.106h-3.005l-0.077-0.455l2.837-3.341H47.478z
			 M47.1,154.299l-2.676,3.138H47.1V154.299z"/>
	</g>
	<g>
		<path fill="#FFFFFF" d="M125.895,153.216c0.008-1.016,1.01-1.261,1.828-1.261c1.164,0,1.801,0.567,1.809,1.296
			c0,0.554-0.463,1.036-1.037,1.142c0.588,0.112,1.127,0.603,1.127,1.205c0,0.77-0.65,1.387-1.883,1.387
			c-0.848,0-1.92-0.245-1.92-1.311h0.363c0.008,0.883,0.939,0.96,1.562,0.96c1.029,0,1.52-0.47,1.52-1.022
			c0-0.512-0.518-1.051-1.525-1.051h-0.812v-0.315h0.791c0.973,0,1.463-0.525,1.471-0.994c0.006-0.512-0.484-0.98-1.457-0.98
			c-0.596,0-1.479,0.112-1.479,0.945H125.895z"/>
	</g>
	<g>
		<path fill="#FFFFFF" d="M165.25,84.465c0-1.044,0.994-1.366,1.877-1.366c0.902,0,1.883,0.371,1.891,1.429
			c0,1.002-1.008,1.408-1.877,1.408c-0.715,0.007-1.549,0.175-1.549,1.016V87.7h3.377v0.364h-3.748v-1.106
			c0-1.086,1.002-1.366,1.906-1.366c0.637,0,1.541-0.238,1.541-1.064c0-0.861-0.869-1.1-1.541-1.1c-0.652,0-1.506,0.225-1.506,1.037
			H165.25z"/>
	</g>
	<g>
		<path fill="#FFFFFF" d="M2.972,85.403v-2.241h3.411v0.336H3.323v1.568h1.576c1.33,0,1.758,0.743,1.758,1.506
			c0,0.806-0.603,1.527-1.905,1.527c-0.89,0-1.891-0.294-1.898-1.387h0.379c0,0.854,0.861,1.009,1.52,1.009
			c1.051,0,1.526-0.49,1.526-1.142c0-0.589-0.294-1.177-1.379-1.177H2.972z"/>
	</g>
</g>
</svg>
