<?xml version="1.0" encoding="utf-8"?>
<!-- Generator: Adobe Illustrator 15.0.0, SVG Export Plug-In . SVG Version: 6.00 Build 0)  -->
<!DOCTYPE svg PUBLIC "-//W3C//DTD SVG 1.1//EN" "http://www.w3.org/Graphics/SVG/1.1/DTD/svg11.dtd">
<svg version="1.1" id="Layer_1" xmlns="http://www.w3.org/2000/svg" xmlns:xlink="http://www.w3.org/1999/xlink" x="0px" y="0px"
	 width="171.154px" height="170.968px" viewBox="0 0 171.154 170.968" enable-background="new 0 0 171.154 170.968"
	 xml:space="preserve">
<g id="XMLID_18_">
	<g>
		<path fill="#5B7BC1" d="M162.877,85.304h-77.3l54.66-54.66C154.228,44.634,162.877,63.954,162.877,85.304z"/>
		<path fill="#52AF73" d="M85.577,85.304h77.3c0,21.35-8.649,40.669-22.64,54.66L85.577,85.304z"/>
		<path fill="#32AAB7" d="M140.237,30.644l-54.66,54.66v-77.3C106.928,8.004,126.247,16.654,140.237,30.644z"/>
		<path fill="#848484" d="M85.577,85.304l54.66,54.66c-13.99,13.99-33.31,22.64-54.66,22.64V85.304z"/>
		<path fill="#ED7085" d="M85.577,85.304v77.299c-21.35,0-40.67-8.649-54.66-22.64L85.577,85.304z"/>
		<path fill="#474747" d="M85.577,8.004v77.3l-54.66-54.66C44.907,16.654,64.228,8.004,85.577,8.004z"/>
		<path fill="#E58E53" d="M85.577,85.304l-54.66,54.66c-13.99-13.99-22.64-33.31-22.64-54.66H85.577z"/>
		<path fill="#D8BD4A" d="M85.577,85.304h-77.3c0-21.35,8.65-40.67,22.64-54.66L85.577,85.304z"/>
	</g>
	<g>
	</g>
</g>
<g id="XMLID_19_">
	<g>
		<rect x="85.569" y="85.297" fill="#3CA566" width="0.011" height="0.011"/>
	</g>
	<g>
	</g>
</g>
<g>
	
		<circle fill="none" stroke="#FFFFFF" stroke-width="0.27" stroke-linecap="round" stroke-linejoin="round" cx="85.577" cy="85.305" r="73.436"/>
</g>
<g>
	<circle fill="none" stroke="#FFFFFF" stroke-width="0.75" stroke-miterlimit="10" cx="85.578" cy="85.304" r="85.04"/>
	
		<line fill="none" stroke="#FFFFFF" stroke-width="0.75" stroke-miterlimit="10" x1="164.664" y1="85.304" x2="170.617" y2="85.304"/>
	<line fill="none" stroke="#FFFFFF" stroke-width="0.75" stroke-miterlimit="10" x1="0.538" y1="85.304" x2="6.491" y2="85.304"/>
	
		<line fill="none" stroke="#FFFFFF" stroke-width="0.75" stroke-miterlimit="10" x1="85.577" y1="164.39" x2="85.577" y2="170.343"/>
	<line fill="none" stroke="#FFFFFF" stroke-width="0.75" stroke-miterlimit="10" x1="85.577" y1="0.265" x2="85.577" y2="6.216"/>
	<line fill="none" stroke="#FFFFFF" stroke-width="0.75" stroke-miterlimit="10" x1="141.5" y1="29.38" x2="145.71" y2="25.171"/>
	
		<line fill="none" stroke="#FFFFFF" stroke-width="0.75" stroke-miterlimit="10" x1="25.445" y1="145.437" x2="29.655" y2="141.228"/>
	
		<line fill="none" stroke="#FFFFFF" stroke-width="0.75" stroke-miterlimit="10" x1="141.5" y1="141.228" x2="145.71" y2="145.437"/>
	<line fill="none" stroke="#FFFFFF" stroke-width="0.75" stroke-miterlimit="10" x1="25.445" y1="25.171" x2="29.655" y2="29.38"/>
</g>
<g>
	<path fill="#FFFFFF" d="M113.318,10.208V7.967h3.411v0.336h-3.061v1.568h1.576c1.33,0,1.758,0.743,1.758,1.506
		c0,0.806-0.603,1.527-1.905,1.527c-0.89,0-1.891-0.294-1.898-1.387h0.379c0,0.854,0.861,1.009,1.52,1.009
		c1.051,0,1.526-0.49,1.526-1.142c0-0.589-0.294-1.177-1.379-1.177H113.318z"/>
</g>
<g>
	<path fill="#FFFFFF" d="M158.405,53.851c0.392-0.561,0.959-0.693,1.568-0.693c0.925,0,1.912,0.428,1.912,1.513
		c0,1.114-0.994,1.513-1.919,1.513c-0.932,0-1.934-0.42-1.934-1.526v-2.144c0-0.924,0.932-1.358,1.863-1.358
		c0.98,0,1.807,0.413,1.87,1.239h-0.378c-0.042-0.588-0.687-0.903-1.492-0.903c-0.742,0-1.491,0.344-1.491,1.022V53.851z
		 M161.515,54.67c0-0.806-0.841-1.169-1.541-1.169s-1.555,0.356-1.562,1.162c-0.007,0.883,0.854,1.163,1.555,1.163
		S161.515,55.567,161.515,54.67z"/>
</g>
<g>
	<path fill="#FFFFFF" d="M162.409,113.213h-3.18v-0.35h3.572l0.049,0.309l-2.661,4.594h-0.428L162.409,113.213z"/>
</g>
<g>
	<path fill="#FFFFFF" d="M114.751,161.314c0-0.672,0.532-1.121,1.106-1.24c-0.567-0.174-1.022-0.518-1.022-1.135
		c0-1.021,1.093-1.344,1.94-1.344c0.84,0,1.933,0.301,1.939,1.344c0,0.617-0.49,0.975-1.064,1.148
		c0.574,0.119,1.142,0.574,1.142,1.227c0,1.057-1.113,1.395-2.017,1.395C115.871,162.709,114.758,162.371,114.751,161.314z
		 M115.129,161.314c0,0.812,1.064,1.037,1.646,1.037c0.574,0,1.639-0.225,1.646-1.037c0-0.82-1.079-1.092-1.646-1.092
		C116.2,160.223,115.129,160.475,115.129,161.314z M115.206,158.939c0,0.75,0.98,0.961,1.569,0.961c0.581,0,1.568-0.211,1.568-0.961
		c0-0.783-0.974-1.021-1.568-1.021C116.18,157.918,115.206,158.135,115.206,158.939z"/>
</g>
<g>
	<path fill="#FFFFFF" d="M51.041,161.035h0.826v-4.236h-0.826v-0.336h1.204v4.572h0.827v0.33h-2.031V161.035z"/>
</g>
<g>
	<path fill="#FFFFFF" d="M8.6,114.168c0-1.045,0.994-1.367,1.877-1.367c0.903,0,1.884,0.371,1.891,1.43
		c0,1.002-1.008,1.408-1.877,1.408c-0.714,0.006-1.548,0.174-1.548,1.016v0.748h3.376v0.365H8.571v-1.107
		c0-1.086,1.002-1.365,1.905-1.365c0.638,0,1.541-0.238,1.541-1.064c0-0.861-0.869-1.1-1.541-1.1c-0.651,0-1.506,0.225-1.506,1.037
		H8.6z"/>
</g>
<g>
	<path fill="#FFFFFF" d="M8.578,52.423c0.008-1.016,1.009-1.261,1.828-1.261c1.163,0,1.8,0.567,1.808,1.296
		c0,0.554-0.463,1.036-1.037,1.142c0.589,0.112,1.128,0.603,1.128,1.205c0,0.77-0.651,1.387-1.884,1.387
		c-0.848,0-1.919-0.245-1.919-1.311h0.363c0.008,0.883,0.938,0.96,1.562,0.96c1.029,0,1.52-0.47,1.52-1.022
		c0-0.512-0.519-1.051-1.526-1.051H9.608v-0.315h0.791c0.974,0,1.464-0.525,1.471-0.994c0.007-0.512-0.483-0.98-1.457-0.98
		c-0.595,0-1.478,0.112-1.478,0.945H8.578z"/>
</g>
<g>
	<path fill="#FFFFFF" d="M55.592,7.967v3.418h0.616v0.378h-0.616v1.106h-0.378v-1.106h-3.005l-0.077-0.455l2.837-3.341H55.592z
		 M55.214,8.248l-2.676,3.138h2.676V8.248z"/>
</g>
</svg>
