<?xml version="1.0" encoding="utf-8"?>
<!-- Generator: Adobe Illustrator 15.0.0, SVG Export Plug-In . SVG Version: 6.00 Build 0)  -->
<!DOCTYPE svg PUBLIC "-//W3C//DTD SVG 1.1//EN" "http://www.w3.org/Graphics/SVG/1.1/DTD/svg11.dtd">
<svg version="1.1" id="Layer_1" xmlns="http://www.w3.org/2000/svg" xmlns:xlink="http://www.w3.org/1999/xlink" x="0px" y="0px"
	 width="171.154px" height="170.968px" viewBox="0 0 171.154 170.968" enable-background="new 0 0 171.154 170.968"
	 xml:space="preserve">
<g>
	<g>
		<g id="XMLID_1_">
			<g>
				<path fill="#EF8C48" d="M152.524,46.822c6.589,11.377,10.353,24.587,10.353,38.669c0,14.083-3.764,27.292-10.353,38.658
					l-0.011-0.011L85.572,85.491l66.942-38.658L152.524,46.822z"/>
				<path fill="#66B585" d="M85.572,85.491v77.293c-28.612,0-53.591-15.543-66.942-38.646L85.572,85.491z"/>
				<path fill="#E5C438" d="M152.513,124.138l0.011,0.011c-13.362,23.093-38.341,38.638-66.953,38.638V85.491L152.513,124.138z"/>
				<path fill="#F76383" d="M152.524,46.822l-0.011,0.011L85.572,85.491V8.186C114.183,8.186,139.162,23.73,152.524,46.822z"/>
				<path fill="#32AAB7" d="M18.629,46.833l66.942,38.658l-66.942,38.647C12.04,112.772,8.277,99.574,8.277,85.491
					C8.277,71.409,12.04,58.21,18.629,46.833z"/>
				<path fill="#5B7BC1" d="M85.572,8.186v77.305L18.629,46.833C31.98,23.73,56.96,8.186,85.572,8.186z"/>
			</g>
		</g>
		
			<circle fill="none" stroke="#FFFFFF" stroke-width="0.27" stroke-linecap="round" stroke-linejoin="round" cx="85.576" cy="85.485" r="73.436"/>
	</g>
	<g>
		<circle fill="none" stroke="#FFFFFF" stroke-width="0.75" stroke-miterlimit="10" cx="85.576" cy="85.485" r="85.04"/>
		
			<line fill="none" stroke="#FFFFFF" stroke-width="0.75" stroke-miterlimit="10" x1="85.576" y1="164.57" x2="85.576" y2="170.523"/>
		<line fill="none" stroke="#FFFFFF" stroke-width="0.75" stroke-miterlimit="10" x1="85.576" y1="0.444" x2="85.576" y2="6.4"/>
		
			<line fill="none" stroke="#FFFFFF" stroke-width="0.75" stroke-miterlimit="10" x1="154.076" y1="125.035" x2="159.222" y2="128.005"/>
		<line fill="none" stroke="#FFFFFF" stroke-width="0.75" stroke-miterlimit="10" x1="11.93" y1="42.964" x2="17.076" y2="45.936"/>
		
			<line fill="none" stroke="#FFFFFF" stroke-width="0.75" stroke-miterlimit="10" x1="17.076" y1="125.035" x2="11.93" y2="128.005"/>
		
			<line fill="none" stroke="#FFFFFF" stroke-width="0.75" stroke-miterlimit="10" x1="159.222" y1="42.964" x2="154.077" y2="45.934"/>
		<path fill="none" stroke="#FFFFFF" stroke-width="0.75" stroke-miterlimit="10" d="M85.577,85.485"/>
	</g>
	<g enable-background="new    ">
		<path fill="#FFFFFF" d="M124.986,16.855l0.7,0.438l2.248-3.592l-0.7-0.438l0.179-0.285l1.02,0.639l-2.426,3.876l0.701,0.439
			l-0.175,0.279l-1.722-1.078L124.986,16.855z"/>
	</g>
	<g enable-background="new    ">
		<path fill="#FFFFFF" d="M44.641,15.589c0.059-0.682,0.482-1.081,1.01-1.386c0.8-0.463,1.87-0.587,2.413,0.352
			c0.559,0.964-0.104,1.807-0.903,2.27c-0.806,0.467-1.884,0.605-2.438-0.353l-1.073-1.855c-0.463-0.8,0.125-1.642,0.932-2.109
			c0.849-0.491,1.771-0.548,2.239,0.136l-0.327,0.189c-0.332-0.487-1.047-0.438-1.744-0.035c-0.643,0.372-1.119,1.045-0.779,1.632
			L44.641,15.589z M47.743,14.741c-0.403-0.698-1.313-0.59-1.919-0.24c-0.606,0.351-1.167,1.087-0.77,1.788
			c0.436,0.768,1.321,0.579,1.928,0.228C47.589,16.166,48.192,15.517,47.743,14.741z"/>
	</g>
	<g enable-background="new    ">
		<path fill="#FFFFFF" d="M43.973,157.634l1.62-3.01l-0.543-0.292L45.229,154l0.543,0.293l0.524-0.975l0.333,0.18l-0.524,0.974
			l2.646,1.424l-0.148,0.438l-4.082,1.597L43.973,157.634z M44.438,157.567l3.844-1.495l-2.356-1.268L44.438,157.567z"/>
	</g>
	<g enable-background="new    ">
		<path fill="#FFFFFF" d="M130.283,154.83c0.518,0.873-0.214,1.6-0.916,2.022c-0.997,0.6-1.835,0.442-2.216-0.179
			c-0.286-0.475-0.139-1.126,0.299-1.512c-0.562,0.207-1.277,0.064-1.588-0.451c-0.396-0.66-0.156-1.524,0.899-2.16
			c0.726-0.438,1.771-0.779,2.319,0.133l-0.312,0.188c-0.461-0.752-1.299-0.338-1.833-0.017c-0.882,0.531-1.06,1.187-0.775,1.66
			c0.265,0.438,0.986,0.633,1.851,0.112l0.696-0.418l0.162,0.27l-0.678,0.408c-0.834,0.502-0.983,1.205-0.748,1.61
			c0.258,0.442,0.92,0.591,1.754,0.089c0.51-0.307,1.209-0.858,0.779-1.572L130.283,154.83z"/>
	</g>
	<g enable-background="new    ">
		<path fill="#FFFFFF" d="M168.019,84.25c1.044,0.015,1.352,1.015,1.339,1.896c-0.014,0.903-0.399,1.879-1.457,1.87
			c-1.002-0.015-1.393-1.03-1.38-1.897c0.004-0.714-0.151-1.55-0.992-1.562l-0.749-0.011l-0.05,3.375l-0.364-0.005l0.055-3.747
			l1.106,0.017c1.086,0.016,1.351,1.022,1.338,1.924c-0.01,0.638,0.216,1.545,1.042,1.557c0.861,0.014,1.112-0.852,1.122-1.524
			c0.009-0.651-0.203-1.509-1.016-1.521L168.019,84.25z"/>
	</g>
	<g enable-background="new    ">
		<path fill="#FFFFFF" d="M4.488,88.055l-2.241-0.027l0.041-3.41l0.336,0.004l-0.037,3.06l1.568,0.02l0.02-1.575
			c0.016-1.331,0.764-1.749,1.525-1.739c0.806,0.01,1.521,0.62,1.505,1.923c-0.011,0.89-0.317,1.888-1.41,1.881L5.8,87.812
			c0.854,0.01,1.02-0.85,1.027-1.508c0.013-1.05-0.472-1.532-1.123-1.54c-0.589-0.007-1.18,0.28-1.192,1.366L4.488,88.055z"/>
	</g>
</g>
</svg>
