<?xml version="1.0" encoding="utf-8"?>
<!-- Generator: Adobe Illustrator 15.0.0, SVG Export Plug-In . SVG Version: 6.00 Build 0)  -->
<!DOCTYPE svg PUBLIC "-//W3C//DTD SVG 1.1//EN" "http://www.w3.org/Graphics/SVG/1.1/DTD/svg11.dtd">
<svg version="1.1" id="Layer_1" xmlns="http://www.w3.org/2000/svg" xmlns:xlink="http://www.w3.org/1999/xlink" x="0px" y="0px"
	 width="171.154px" height="170.968px" viewBox="0 0 171.154 170.968" enable-background="new 0 0 171.154 170.968"
	 xml:space="preserve">
<g>
	<g id="XMLID_13_">
		<g>
			<path fill="#ED7085" d="M85.592,162.529c-28.519,0-53.416-15.492-66.746-38.509l0.011-0.012l66.734-38.52l66.723,38.52
				C138.996,147.037,114.099,162.529,85.592,162.529z"/>
			<path fill="#EACA42" d="M85.592,85.489V8.437c42.543,0,77.041,34.498,77.041,77.052c0,14.036-3.751,27.192-10.318,38.52
				L85.592,85.489z"/>
			<path fill="#32AAB7" d="M85.592,8.437v77.052l-66.734,38.52l-0.011,0.012c-6.556-11.34-10.317-24.496-10.317-38.532
				C8.529,42.935,43.037,8.437,85.592,8.437z"/>
		</g>
		<g>
		</g>
	</g>
	<g>
		<circle fill="none" stroke="#FFFFFF" stroke-width="0.75" stroke-miterlimit="10" cx="85.577" cy="85.484" r="85.039"/>
		<line fill="none" stroke="#FFFFFF" stroke-width="0.75" stroke-miterlimit="10" x1="85.577" y1="0.445" x2="85.577" y2="6.394"/>
		
			<line fill="none" stroke="#FFFFFF" stroke-width="0.75" stroke-miterlimit="10" x1="154.083" y1="125.035" x2="159.224" y2="128.004"/>
		
			<line fill="none" stroke="#FFFFFF" stroke-width="0.75" stroke-miterlimit="10" x1="17.075" y1="125.033" x2="11.931" y2="128.004"/>
	</g>
	<line fill="none" stroke="#FFFFFF" stroke-miterlimit="10" x1="11.808" y1="128.461" x2="16.505" y2="125.49"/>
	<line fill="none" stroke="#FFFFFF" stroke-miterlimit="10" x1="154.716" y1="125.365" x2="159.523" y2="128.086"/>
	
		<circle fill="none" stroke="#FFFFFF" stroke-width="0.2718" stroke-linecap="round" stroke-linejoin="round" cx="85.577" cy="85.485" r="73.928"/>
	<g>
		<path fill="#FFFFFF" d="M151.134,38.859c0-1.044,0.994-1.366,1.877-1.366c0.903,0,1.884,0.371,1.891,1.429
			c0,1.002-1.008,1.408-1.877,1.408c-0.714,0.007-1.548,0.175-1.548,1.016v0.749h3.376v0.364h-3.747v-1.106
			c0-1.086,1.002-1.366,1.905-1.366c0.638,0,1.541-0.238,1.541-1.064c0-0.861-0.869-1.1-1.541-1.1c-0.651,0-1.506,0.225-1.506,1.037
			H151.134z"/>
	</g>
	<g>
		<path fill="#FFFFFF" d="M85.616,168.631h0.826v-4.238h-0.826v-0.336h1.204v4.574h0.827v0.328h-2.031V168.631z"/>
	</g>
	<g>
		<path fill="#FFFFFF" d="M14.804,42.004c0.008-1.016,1.009-1.261,1.828-1.261c1.163,0,1.8,0.567,1.808,1.296
			c0,0.554-0.463,1.036-1.037,1.142c0.589,0.112,1.128,0.603,1.128,1.205c0,0.77-0.651,1.387-1.884,1.387
			c-0.848,0-1.919-0.245-1.919-1.311h0.363c0.008,0.883,0.938,0.96,1.562,0.96c1.029,0,1.52-0.47,1.52-1.022
			c0-0.512-0.519-1.051-1.526-1.051h-0.812v-0.315h0.791c0.974,0,1.464-0.525,1.471-0.994c0.007-0.512-0.483-0.98-1.457-0.98
			c-0.595,0-1.478,0.112-1.478,0.945H14.804z"/>
	</g>
</g>
</svg>
