<?xml version="1.0" encoding="utf-8"?>
<!-- Generator: Adobe Illustrator 15.0.0, SVG Export Plug-In . SVG Version: 6.00 Build 0)  -->
<!DOCTYPE svg PUBLIC "-//W3C//DTD SVG 1.1//EN" "http://www.w3.org/Graphics/SVG/1.1/DTD/svg11.dtd">
<svg version="1.1" id="Layer_1" xmlns="http://www.w3.org/2000/svg" xmlns:xlink="http://www.w3.org/1999/xlink" x="0px" y="0px"
	 width="171.154px" height="170.968px" viewBox="0 0 171.154 170.968" enable-background="new 0 0 171.154 170.968"
	 xml:space="preserve">
<g>
	<g id="XMLID_1_">
		<g>
			<path fill="#F76383" d="M40.139,148.027c-19.32-14.04-31.87-36.82-31.87-62.541c0-8.34,1.319-16.37,3.77-23.89l0.021,0.01
				l73.52,23.88L40.139,148.027z"/>
			<path fill="#32AAB7" d="M85.579,8.187v77.3l-73.52-23.88l-0.021-0.01C22.099,30.596,51.219,8.187,85.579,8.187z"/>
			<path fill="#EF8C48" d="M85.579,162.787c-16.979,0-32.68-5.471-45.439-14.76l45.439-62.541l45.43,62.541
				C118.26,157.316,102.559,162.787,85.579,162.787z"/>
			<path fill="#E5C438" d="M131.01,148.027L85.58,85.486l73.51-23.88l0.021-0.01c2.45,7.52,3.771,15.55,3.771,23.89
				C162.88,111.207,150.329,133.987,131.01,148.027z"/>
			<path fill="#66B585" d="M85.579,85.486v-77.3c34.351,0,63.47,22.41,73.53,53.41l-0.021,0.01L85.579,85.486z"/>
		</g>
	</g>
	<g>
		
			<circle fill="none" stroke="#FFFFFF" stroke-width="0.27" stroke-linecap="round" stroke-linejoin="round" cx="85.57" cy="85.482" r="73.437"/>
	</g>
	<g>
		<circle fill="none" stroke="#FFFFFF" stroke-width="0.75" stroke-miterlimit="10" cx="85.576" cy="85.484" r="85.04"/>
		<line fill="none" stroke="#FFFFFF" stroke-width="0.75" stroke-miterlimit="10" x1="85.577" y1="0.444" x2="85.577" y2="6.394"/>
		
			<line fill="none" stroke="#FFFFFF" stroke-width="0.75" stroke-miterlimit="10" x1="135.561" y1="154.283" x2="132.067" y2="149.471"/>
		
			<line fill="none" stroke="#FFFFFF" stroke-width="0.75" stroke-miterlimit="10" x1="35.592" y1="154.283" x2="39.091" y2="149.466"/>
		<line fill="none" stroke="#FFFFFF" stroke-width="0.75" stroke-miterlimit="10" x1="4.7" y1="59.207" x2="10.354" y2="61.043"/>
		
			<line fill="none" stroke="#FFFFFF" stroke-width="0.75" stroke-miterlimit="10" x1="166.454" y1="59.207" x2="160.809" y2="61.039"/>
	</g>
	<g enable-background="new    ">
		<path fill="#FFFFFF" d="M130.375,21.076l0.679,0.471l2.412-3.483l-0.679-0.471l0.191-0.276l0.99,0.686l-2.604,3.76l0.68,0.471
			l-0.187,0.271l-1.67-1.156L130.375,21.076z"/>
	</g>
	<g enable-background="new    ">
		<path fill="#FFFFFF" d="M34.948,21.961l-1.377-1.768l2.689-2.097l0.206,0.265l-2.413,1.882l0.964,1.237l1.243-0.969
			c1.049-0.818,1.843-0.495,2.312,0.107c0.495,0.635,0.464,1.575-0.563,2.375c-0.701,0.547-1.672,0.931-2.35,0.073l0.299-0.232
			c0.525,0.674,1.3,0.266,1.818-0.139c0.829-0.646,0.903-1.326,0.503-1.839c-0.362-0.465-0.956-0.747-1.812-0.08L34.948,21.961z"/>
	</g>
	<g enable-background="new    ">
		<path fill="#FFFFFF" d="M7.181,114.904l3.141-1.35l-0.243-0.566l0.348-0.148l0.243,0.566l1.017-0.438l0.149,0.348l-1.017,0.437
			l1.187,2.762l-0.388,0.25l-4.189-1.288L7.181,114.904z M7.588,115.14l3.939,1.221l-1.056-2.459L7.588,115.14z"/>
	</g>
	<g enable-background="new    ">
		<path fill="#FFFFFF" d="M165.766,106.943c1.07,0.325,1.115,1.381,0.861,2.229c-0.26,0.867-0.922,1.693-2.008,1.369
			c-1.027-0.312-1.154-1.406-0.905-2.24c0.198-0.688,0.266-1.541-0.598-1.803l-0.768-0.233l-0.97,3.241l-0.374-0.113l1.076-3.598
			l1.136,0.345c1.112,0.339,1.113,1.387,0.854,2.255c-0.184,0.611-0.198,1.553,0.649,1.811c0.884,0.27,1.376-0.49,1.569-1.137
			c0.188-0.625,0.203-1.516-0.63-1.77L165.766,106.943z"/>
	</g>
	<g enable-background="new    ">
		<path fill="#FFFFFF" d="M85.849,167.611c-0.007,1.016-1.008,1.261-1.828,1.261c-1.163,0-1.8-0.567-1.807-1.296
			c0-0.554,0.462-1.036,1.037-1.142c-0.588-0.112-1.128-0.603-1.128-1.205c0-0.77,0.651-1.387,1.884-1.387
			c0.847,0,1.919,0.245,1.919,1.311h-0.364c-0.007-0.883-0.938-0.96-1.562-0.96c-1.029,0-1.52,0.47-1.52,1.022
			c0,0.512,0.518,1.051,1.527,1.051h0.812v0.315h-0.792c-0.974,0-1.464,0.525-1.471,0.994c-0.007,0.512,0.483,0.98,1.457,0.98
			c0.595,0,1.478-0.112,1.478-0.945H85.849z"/>
	</g>
</g>
</svg>
