<?xml version="1.0" encoding="utf-8"?>
<!-- Generator: Adobe Illustrator 15.0.0, SVG Export Plug-In . SVG Version: 6.00 Build 0)  -->
<!DOCTYPE svg PUBLIC "-//W3C//DTD SVG 1.1//EN" "http://www.w3.org/Graphics/SVG/1.1/DTD/svg11.dtd">
<svg version="1.1" id="Layer_1" xmlns="http://www.w3.org/2000/svg" xmlns:xlink="http://www.w3.org/1999/xlink" x="0px" y="0px"
	 width="171.154px" height="170.968px" viewBox="0 0 171.154 170.968" enable-background="new 0 0 171.154 170.968"
	 xml:space="preserve">
<g>
	<g id="XMLID_1_">
		<g>
			<path fill="#EF8C48" d="M119.119,155.126l0.011,0.013c-10.144,4.897-21.531,7.646-33.553,7.646
				c-12.021,0-23.396-2.738-33.553-7.636l0.011-0.022l33.531-69.635h0.011L119.119,155.126z"/>
			<path fill="#F76383" d="M160.809,103.25h0.011c-5.388,22.908-20.965,41.888-41.69,51.891l-0.011-0.012L85.577,85.491V85.48
				L160.809,103.25z"/>
			<path fill="#52AF73" d="M85.533,85.404l0.033,0.077v0.011l-0.065,0.055l-0.098-0.022l-75.189,17.158h-0.021
				c-1.254-5.53-1.92-11.29-1.92-17.202c0-18.228,6.305-34.982,16.864-48.192l60.331,48.104L85.533,85.404z"/>
			<path fill="#E5C438" d="M85.566,85.491l-33.531,69.635l-0.011,0.022c-20.9-10.09-36.563-29.299-41.832-52.468h0.021
				l75.189-17.158l0.098,0.022L85.566,85.491z"/>
			<path fill="#32AAB7" d="M85.577,85.393l-0.043,0.011l-0.064-0.011L25.136,37.289C39.295,19.552,61.111,8.186,85.577,8.186V85.393
				z"/>
			<path fill="#5B7BC1" d="M85.566,85.48l-0.033-0.077l0.043-0.011V8.186c24.674,0,46.644,11.552,60.79,29.55L85.577,85.48H85.566z"
				/>
			<rect x="85.566" y="85.48" fill="#3CA566" width="0.011" height="0.011"/>
			<path fill="#474747" d="M162.871,85.48c0,6.107-0.709,12.064-2.051,17.77h-0.011L85.577,85.48l60.79-47.745
				C156.708,50.88,162.871,67.46,162.871,85.48z"/>
		</g>
	</g>
	<g>
		
			<circle fill="none" stroke="#FFFFFF" stroke-width="0.27" stroke-linecap="round" stroke-linejoin="round" cx="85.576" cy="85.483" r="73.437"/>
	</g>
	<circle fill="#888888" cx="85.576" cy="85.483" r="3.901"/>
	<g>
		<circle fill="none" stroke="#FFFFFF" stroke-width="0.75" stroke-miterlimit="10" cx="85.576" cy="85.483" r="85.04"/>
		<line fill="none" stroke="#FFFFFF" stroke-width="0.75" stroke-miterlimit="10" x1="85.576" y1="0.444" x2="85.576" y2="6.397"/>
		<line fill="none" stroke="#FFFFFF" stroke-width="0.75" stroke-miterlimit="10" x1="19.09" y1="32.461" x2="23.747" y2="36.176"/>
		
			<line fill="none" stroke="#FFFFFF" stroke-width="0.75" stroke-miterlimit="10" x1="2.669" y1="104.408" x2="8.458" y2="103.085"/>
		
			<line fill="none" stroke="#FFFFFF" stroke-width="0.75" stroke-miterlimit="10" x1="48.679" y1="162.1" x2="51.255" y2="156.751"/>
		
			<line fill="none" stroke="#FFFFFF" stroke-width="0.75" stroke-miterlimit="10" x1="122.473" y1="162.1" x2="119.9" y2="156.755"/>
		
			<line fill="none" stroke="#FFFFFF" stroke-width="0.75" stroke-miterlimit="10" x1="168.34" y1="105.026" x2="162.562" y2="103.662"/>
		
			<line fill="none" stroke="#FFFFFF" stroke-width="0.75" stroke-miterlimit="10" x1="152.458" y1="32.961" x2="147.778" y2="36.635"/>
	</g>
	<g enable-background="new    ">
		<path fill="#FFFFFF" d="M151.589,134.638c0.805,0.619,0.395,1.564-0.102,2.217c-0.703,0.927-1.54,1.092-2.125,0.656
			c-0.441-0.334-0.545-0.994-0.281-1.516c-0.446,0.4-1.163,0.533-1.643,0.17c-0.613-0.465-0.711-1.357,0.035-2.34
			c0.512-0.674,1.355-1.38,2.204-0.736l-0.22,0.291c-0.708-0.529-1.332,0.167-1.709,0.664c-0.623,0.819-0.545,1.494-0.105,1.828
			c0.408,0.309,1.15,0.223,1.76-0.581l0.492-0.647l0.251,0.191l-0.479,0.63c-0.588,0.775-0.465,1.483-0.097,1.772
			c0.403,0.314,1.073,0.208,1.662-0.567c0.36-0.474,0.804-1.245,0.141-1.749L151.589,134.638z"/>
	</g>
	<g enable-background="new    ">
		<path fill="#FFFFFF" d="M22.628,136.436L20.85,137.8l-2.075-2.707l0.267-0.205l1.862,2.429l1.245-0.954l-0.959-1.252
			c-0.809-1.055-0.48-1.846,0.125-2.311c0.639-0.49,1.578-0.45,2.371,0.583c0.542,0.706,0.917,1.68,0.055,2.351l-0.23-0.301
			c0.678-0.52,0.276-1.297-0.125-1.82c-0.639-0.834-1.318-0.912-1.835-0.516c-0.467,0.357-0.755,0.949-0.095,1.81L22.628,136.436z"
			/>
	</g>
	<g enable-background="new    ">
		<path fill="#FFFFFF" d="M7.251,66.54c-0.446-0.518-0.436-1.101-0.285-1.691c0.229-0.896,0.887-1.748,1.938-1.479
			c1.08,0.275,1.221,1.337,0.992,2.233c-0.23,0.903-0.885,1.77-1.957,1.497l-2.076-0.529c-0.896-0.228-1.087-1.239-0.856-2.141
			c0.242-0.95,0.847-1.648,1.662-1.506l-0.094,0.366c-0.579-0.104-1.044,0.442-1.243,1.223c-0.184,0.72-0.035,1.53,0.623,1.698
			L7.251,66.54z M8.812,63.729c-0.78-0.199-1.34,0.525-1.514,1.204c-0.173,0.679-0.038,1.595,0.74,1.801
			c0.854,0.225,1.338-0.541,1.512-1.22C9.723,64.836,9.681,63.951,8.812,63.729z"/>
	</g>
	<g enable-background="new    ">
		<path fill="#FFFFFF" d="M50.301,10.454l-2.82,1.469l-0.161-0.31l3.168-1.65l0.186,0.25l-0.238,5.304l-0.379,0.197L50.301,10.454z"
			/>
	</g>
	<g enable-background="new    ">
		<path fill="#FFFFFF" d="M118.05,13.542l0.757,0.333l1.708-3.878l-0.757-0.333l0.136-0.308l1.102,0.485l-1.843,4.186l0.757,0.333
			l-0.133,0.302l-1.859-0.819L118.05,13.542z"/>
	</g>
	<g enable-background="new    ">
		<path fill="#FFFFFF" d="M165.481,64.773c1.019-0.229,1.551,0.67,1.744,1.531c0.198,0.881,0.052,1.919-0.979,2.158
			c-0.979,0.22-1.596-0.676-1.785-1.522c-0.164-0.695-0.511-1.472-1.331-1.288l-0.73,0.164l0.739,3.294l-0.355,0.08l-0.82-3.656
			l1.078-0.242c1.061-0.238,1.553,0.678,1.751,1.56c0.14,0.621,0.57,1.451,1.377,1.27c0.841-0.188,0.883-1.088,0.735-1.744
			c-0.143-0.636-0.55-1.42-1.343-1.242L165.481,64.773z"/>
	</g>
	<g enable-background="new    ">
		<path fill="#FFFFFF" d="M85.395,169.195v-3.418h-0.617v-0.378h0.617v-1.106h0.378v1.106h3.005l0.077,0.455l-2.837,3.341H85.395z
			 M85.773,168.915l2.676-3.138h-2.676V168.915z"/>
	</g>
</g>
</svg>
