<?xml version="1.0" encoding="utf-8"?>
<!-- Generator: Adobe Illustrator 15.0.0, SVG Export Plug-In . SVG Version: 6.00 Build 0)  -->
<!DOCTYPE svg PUBLIC "-//W3C//DTD SVG 1.1//EN" "http://www.w3.org/Graphics/SVG/1.1/DTD/svg11.dtd">
<svg version="1.1" id="Layer_1" xmlns="http://www.w3.org/2000/svg" xmlns:xlink="http://www.w3.org/1999/xlink" x="0px" y="0px"
	 width="171.154px" height="170.968px" viewBox="0 0 171.154 170.968" enable-background="new 0 0 171.154 170.968"
	 xml:space="preserve">
<g>
	<g id="XMLID_1_">
		<g>
			<path fill="#E5C438" d="M85.585,85.484V8.432c42.543,0,77.041,34.498,77.041,77.052c0,14.036-3.751,27.181-10.307,38.521h-0.011
				L85.585,85.484z"/>
			<path fill="#32AAB7" d="M85.585,8.432v77.052L18.85,124.004l-0.021,0.011C12.273,112.675,8.522,99.52,8.522,85.484
				C8.522,42.93,43.031,8.432,85.585,8.432z"/>
			<path fill="#F76383" d="M85.585,85.484l66.724,38.521h0.011c-13.318,23.027-38.217,38.531-66.734,38.531
				c-28.518,0-53.427-15.492-66.756-38.521l0.021-0.011L85.585,85.484z"/>
		</g>
		<g>
		</g>
	</g>
	<g>
		<circle fill="none" stroke="#FFFFFF" stroke-width="0.75" stroke-miterlimit="10" cx="85.577" cy="85.484" r="85.039"/>
		<line fill="none" stroke="#FFFFFF" stroke-width="0.75" stroke-miterlimit="10" x1="85.577" y1="0.445" x2="85.577" y2="6.394"/>
		
			<line fill="none" stroke="#FFFFFF" stroke-width="0.75" stroke-miterlimit="10" x1="154.083" y1="125.035" x2="159.223" y2="128.003"/>
		
			<line fill="none" stroke="#FFFFFF" stroke-width="0.75" stroke-miterlimit="10" x1="17.075" y1="125.033" x2="11.93" y2="128.003"/>
	</g>
	<line fill="none" stroke="#FFFFFF" stroke-miterlimit="10" x1="11.807" y1="128.46" x2="16.505" y2="125.49"/>
	<line fill="none" stroke="#FFFFFF" stroke-miterlimit="10" x1="154.716" y1="125.365" x2="159.523" y2="128.085"/>
	
		<circle fill="none" stroke="#FFFFFF" stroke-width="0.2718" stroke-linecap="round" stroke-linejoin="round" cx="85.577" cy="85.485" r="73.928"/>
	<text transform="matrix(0.5585 0.8294 -0.8294 0.5586 149.7859 40.6899)" fill="#FFFFFF" font-family="'NexaLight'" font-size="7">1</text>
	<text transform="matrix(-1 0 0 -1 90.2136 163.7944)" fill="#FFFFFF" font-family="'NexaLight'" font-size="7">2</text>
	<text transform="matrix(0.5215 -0.8533 0.8533 0.5215 17.1521 46.7354)" fill="#FFFFFF" font-family="'NexaLight'" font-size="7">3</text>
</g>
</svg>
