<?xml version="1.0" encoding="utf-8"?>
<!-- Generator: Adobe Illustrator 15.0.0, SVG Export Plug-In . SVG Version: 6.00 Build 0)  -->
<!DOCTYPE svg PUBLIC "-//W3C//DTD SVG 1.1//EN" "http://www.w3.org/Graphics/SVG/1.1/DTD/svg11.dtd">
<svg version="1.1" id="Layer_1" xmlns="http://www.w3.org/2000/svg" xmlns:xlink="http://www.w3.org/1999/xlink" x="0px" y="0px"
	 width="171.154px" height="170.968px" viewBox="0 0 171.154 170.968" enable-background="new 0 0 171.154 170.968"
	 xml:space="preserve">
<g>
	<g id="XMLID_17_">
		<g>
			<path fill="#ED7085" d="M85.577,85.49v-0.011h0.011l75.222,17.769h0.022c-5.389,22.907-20.966,41.887-41.69,51.89l-0.011-0.011
				L85.577,85.49z"/>
			<path fill="#32AAB7" d="M85.479,85.392L25.136,37.288C39.295,19.551,61.111,8.185,85.577,8.185v77.207l-0.043,0.011
				L85.479,85.392z"/>
			<path fill="#5B7BC1" d="M85.577,85.392V8.185c24.674,0,46.643,11.552,60.802,29.539l-0.011,0.011l-60.78,47.745h-0.011h-0.011
				l-0.032-0.077L85.577,85.392z"/>
			<path fill="#52AF73" d="M85.403,85.523l-75.189,17.159h-0.021c-1.254-5.531-1.92-11.29-1.92-17.202
				c0-18.228,6.305-34.982,16.864-48.192l60.343,48.104l0.055,0.011l0.032,0.077h0.011v0.011l-0.076,0.055L85.403,85.523z"/>
			<path fill="#474747" d="M160.81,103.248L85.588,85.479l60.78-47.745l0.011-0.011c10.341,13.144,16.504,29.724,16.504,47.755
				c0,6.108-0.709,12.064-2.051,17.769H160.81z"/>
			<path fill="#E58E53" d="M52.035,155.127L85.577,85.49l33.554,69.637l0.011,0.011c-10.155,4.897-21.532,7.646-33.564,7.646
				c-12.021,0-23.397-2.749-33.553-7.636L52.035,155.127z"/>
			<path fill="#D8BD4A" d="M10.214,102.682l75.189-17.159l0.098,0.022l0.076-0.055l-33.542,69.637l-0.011,0.021
				c-20.9-10.09-36.563-29.299-41.832-52.467H10.214z"/>
		</g>
		<g>
		</g>
	</g>
	<g>
	</g>
	<circle fill="#888888" cx="85.577" cy="85.484" r="3.902"/>
	<g>
		<circle fill="none" stroke="#FFFFFF" stroke-width="0.75" stroke-miterlimit="10" cx="85.577" cy="85.484" r="85.04"/>
		<line fill="none" stroke="#FFFFFF" stroke-width="0.75" stroke-miterlimit="10" x1="85.576" y1="0.445" x2="85.576" y2="6.398"/>
		<line fill="none" stroke="#FFFFFF" stroke-width="0.75" stroke-miterlimit="10" x1="19.09" y1="32.462" x2="23.748" y2="36.177"/>
		
			<line fill="none" stroke="#FFFFFF" stroke-width="0.75" stroke-miterlimit="10" x1="2.669" y1="104.408" x2="8.458" y2="103.088"/>
		
			<line fill="none" stroke="#FFFFFF" stroke-width="0.75" stroke-miterlimit="10" x1="48.68" y1="162.102" x2="51.255" y2="156.754"/>
		
			<line fill="none" stroke="#FFFFFF" stroke-width="0.75" stroke-miterlimit="10" x1="122.475" y1="162.102" x2="119.9" y2="156.758"/>
		
			<line fill="none" stroke="#FFFFFF" stroke-width="0.75" stroke-miterlimit="10" x1="168.34" y1="105.027" x2="162.562" y2="103.662"/>
		
			<line fill="none" stroke="#FFFFFF" stroke-width="0.75" stroke-miterlimit="10" x1="152.459" y1="32.962" x2="147.779" y2="36.636"/>
	</g>
	<g>
		<path fill="#FFFFFF" d="M148.807,136.996h0.826v-4.238h-0.826v-0.336h1.205v4.574h0.826v0.328h-2.031V136.996z"/>
	</g>
	<g>
		<path fill="#FFFFFF" d="M19.72,133.619c0.008-1.016,1.009-1.26,1.828-1.26c1.163,0,1.8,0.566,1.808,1.295
			c0,0.555-0.463,1.037-1.037,1.143c0.589,0.111,1.128,0.602,1.128,1.205c0,0.77-0.651,1.387-1.884,1.387
			c-0.848,0-1.919-0.246-1.919-1.311h0.363c0.008,0.883,0.938,0.959,1.562,0.959c1.029,0,1.52-0.469,1.52-1.021
			c0-0.512-0.519-1.051-1.526-1.051H20.75v-0.316h0.791c0.974,0,1.464-0.525,1.471-0.994c0.007-0.512-0.483-0.98-1.457-0.98
			c-0.595,0-1.478,0.113-1.478,0.945H19.72z"/>
	</g>
	<g>
		<path fill="#FFFFFF" d="M8.115,62.047v3.418h0.616v0.378H8.115v1.106H7.737v-1.106H4.732l-0.077-0.455l2.837-3.341H8.115z
			 M7.737,62.327l-2.676,3.138h2.676V62.327z"/>
	</g>
	<g>
		<path fill="#FFFFFF" d="M49.058,13.155v-2.241h3.411v0.336h-3.061v1.568h1.576c1.33,0,1.758,0.743,1.758,1.506
			c0,0.806-0.603,1.527-1.905,1.527c-0.89,0-1.891-0.294-1.898-1.387h0.379c0,0.854,0.861,1.009,1.52,1.009
			c1.051,0,1.526-0.49,1.526-1.142c0-0.589-0.294-1.177-1.379-1.177H49.058z"/>
	</g>
	<g>
		<path fill="#FFFFFF" d="M118.84,12.54c0.391-0.561,0.959-0.693,1.568-0.693c0.924,0,1.912,0.428,1.912,1.513
			c0,1.114-0.994,1.513-1.92,1.513c-0.932,0-1.934-0.42-1.934-1.526v-2.144c0-0.924,0.932-1.358,1.863-1.358
			c0.98,0,1.807,0.413,1.871,1.239h-0.379c-0.041-0.588-0.686-0.903-1.492-0.903c-0.742,0-1.49,0.344-1.49,1.022V12.54z
			 M121.949,13.359c0-0.806-0.842-1.169-1.541-1.169c-0.701,0-1.555,0.356-1.562,1.162c-0.006,0.883,0.855,1.163,1.555,1.163
			C121.102,14.516,121.949,14.256,121.949,13.359z"/>
	</g>
	<g>
		<path fill="#FFFFFF" d="M165.959,64.396h-3.18v-0.35h3.572l0.049,0.308l-2.66,4.595h-0.428L165.959,64.396z"/>
	</g>
	<g>
		<path fill="#FFFFFF" d="M83.796,165.393c0-1.045,0.994-1.367,1.877-1.367c0.902,0,1.883,0.371,1.891,1.43
			c0,1.002-1.008,1.408-1.877,1.408c-0.714,0.006-1.548,0.174-1.548,1.016v0.748h3.376v0.365h-3.748v-1.107
			c0-1.086,1.002-1.365,1.906-1.365c0.637,0,1.541-0.238,1.541-1.064c0-0.861-0.869-1.1-1.541-1.1c-0.652,0-1.506,0.225-1.506,1.037
			H83.796z"/>
	</g>
</g>
</svg>
