<?xml version="1.0" encoding="utf-8"?>
<!-- Generator: Adobe Illustrator 15.0.0, SVG Export Plug-In . SVG Version: 6.00 Build 0)  -->
<!DOCTYPE svg PUBLIC "-//W3C//DTD SVG 1.1//EN" "http://www.w3.org/Graphics/SVG/1.1/DTD/svg11.dtd">
<svg version="1.1" id="Layer_1" xmlns="http://www.w3.org/2000/svg" xmlns:xlink="http://www.w3.org/1999/xlink" x="0px" y="0px"
	 width="171.154px" height="170.968px" viewBox="0 0 171.154 170.968" enable-background="new 0 0 171.154 170.968"
	 xml:space="preserve">
<g>
	<g id="XMLID_2_">
		<g>
			<path fill="#EF8C48" d="M85.577,85.308l-54.66,54.66c-13.99-13.99-22.64-33.31-22.64-54.66H85.577z"/>
			<path fill="#E5C438" d="M85.577,85.308h-77.3c0-21.35,8.65-40.67,22.64-54.66L85.577,85.308z"/>
			<path fill="#5B7BC1" d="M162.877,85.308h-77.3l54.66-54.66C154.227,44.637,162.877,63.958,162.877,85.308z"/>
			<path fill="#848484" d="M85.577,85.308l54.66,54.66c-13.99,13.99-33.32,22.64-54.66,22.64V85.308z"/>
			<path fill="#F76383" d="M85.577,85.308v77.299c-21.34,0-40.67-8.649-54.66-22.64L85.577,85.308z"/>
			<path fill="#32AAB7" d="M140.237,30.647l-54.66,54.66v-77.3C106.917,8.007,126.247,16.657,140.237,30.647z"/>
			<path fill="#52AF73" d="M85.577,85.308h77.3c0,21.35-8.649,40.669-22.64,54.66L85.577,85.308z"/>
			<path fill="#474747" d="M85.577,8.007v77.3l-54.66-54.66C44.907,16.657,64.237,8.007,85.577,8.007z"/>
		</g>
		<g>
		</g>
	</g>
	<g id="XMLID_1_">
		<g>
			<rect x="85.579" y="85.303" fill="#3CA566" width="0.011" height="0.011"/>
		</g>
		<g>
		</g>
	</g>
	<g>
		
			<circle fill="none" stroke="#FFFFFF" stroke-width="0.27" stroke-linecap="round" stroke-linejoin="round" cx="85.577" cy="85.304" r="73.436"/>
	</g>
	<g>
		<circle fill="none" stroke="#FFFFFF" stroke-width="0.75" stroke-miterlimit="10" cx="85.577" cy="85.303" r="85.04"/>
		
			<line fill="none" stroke="#FFFFFF" stroke-width="0.75" stroke-miterlimit="10" x1="164.664" y1="85.303" x2="170.617" y2="85.303"/>
		<line fill="none" stroke="#FFFFFF" stroke-width="0.75" stroke-miterlimit="10" x1="0.538" y1="85.303" x2="6.491" y2="85.303"/>
		
			<line fill="none" stroke="#FFFFFF" stroke-width="0.75" stroke-miterlimit="10" x1="85.577" y1="164.389" x2="85.577" y2="170.342"/>
		<line fill="none" stroke="#FFFFFF" stroke-width="0.75" stroke-miterlimit="10" x1="85.577" y1="0.264" x2="85.577" y2="6.215"/>
		<line fill="none" stroke="#FFFFFF" stroke-width="0.75" stroke-miterlimit="10" x1="141.5" y1="29.379" x2="145.71" y2="25.17"/>
		
			<line fill="none" stroke="#FFFFFF" stroke-width="0.75" stroke-miterlimit="10" x1="25.445" y1="145.436" x2="29.655" y2="141.227"/>
		
			<line fill="none" stroke="#FFFFFF" stroke-width="0.75" stroke-miterlimit="10" x1="141.5" y1="141.227" x2="145.71" y2="145.436"/>
		<line fill="none" stroke="#FFFFFF" stroke-width="0.75" stroke-miterlimit="10" x1="25.445" y1="25.17" x2="29.655" y2="29.379"/>
	</g>
	<g>
		<path fill="#FFFFFF" d="M112.796,11.341l0.773,0.291l1.492-3.967l-0.773-0.29l0.117-0.315l1.127,0.424l-1.609,4.281l0.773,0.291
			l-0.115,0.309l-1.9-0.715L112.796,11.341z"/>
	</g>
	<g>
		<path fill="#FFFFFF" d="M160.835,51.76c0.959-0.409,1.646,0.378,1.992,1.19c0.354,0.832,0.397,1.879-0.572,2.3
			c-0.922,0.394-1.691-0.375-2.032-1.174c-0.286-0.655-0.769-1.355-1.542-1.026l-0.688,0.295l1.324,3.105l-0.335,0.143l-1.47-3.447
			l1.019-0.435c0.998-0.426,1.648,0.387,2.003,1.218c0.25,0.587,0.823,1.323,1.584,0.999c0.792-0.338,0.671-1.229,0.407-1.848
			c-0.256-0.6-0.797-1.298-1.545-0.979L160.835,51.76z"/>
	</g>
	<g>
		<path fill="#FFFFFF" d="M162.693,114.089c0.935,0.398,0.775,1.417,0.461,2.174c-0.447,1.073-1.216,1.442-1.892,1.17
			c-0.512-0.213-0.778-0.825-0.655-1.396c-0.33,0.501-0.989,0.81-1.546,0.578c-0.711-0.296-1.029-1.134-0.556-2.272
			c0.325-0.782,0.964-1.677,1.947-1.268l-0.14,0.336c-0.818-0.333-1.247,0.497-1.487,1.073c-0.396,0.95-0.15,1.583,0.36,1.795
			c0.473,0.197,1.169-0.074,1.557-1.005l0.312-0.75l0.291,0.121l-0.305,0.73c-0.374,0.899-0.077,1.554,0.354,1.739
			c0.47,0.204,1.091-0.068,1.465-0.967c0.229-0.549,0.464-1.408-0.305-1.729L162.693,114.089z"/>
	</g>
	<g>
		<path fill="#FFFFFF" d="M116.342,162.849l-1.321-3.152l-0.568,0.238l-0.146-0.349l0.568-0.238l-0.427-1.021l0.348-0.146
			l0.427,1.021l2.771-1.162l0.248,0.391l-1.325,4.178L116.342,162.849z M116.581,162.445l1.255-3.928l-2.468,1.034L116.581,162.445z
			"/>
	</g>
	<g>
		<path fill="#FFFFFF" d="M54.38,160.109l-0.93,2.039l-3.104-1.416l0.139-0.306l2.785,1.271l0.651-1.428l-1.434-0.653
			c-1.21-0.552-1.291-1.406-0.974-2.1c0.334-0.733,1.182-1.14,2.367-0.6c0.809,0.37,1.598,1.053,1.152,2.05l-0.345-0.157
			c0.354-0.777-0.365-1.275-0.964-1.549c-0.956-0.436-1.592-0.188-1.862,0.405c-0.245,0.536-0.222,1.193,0.766,1.644L54.38,160.109z
			"/>
	</g>
	<g>
		<path fill="#FFFFFF" d="M11.675,116.952c-0.677-0.097-1.051-0.544-1.326-1.088c-0.417-0.825-0.48-1.899,0.488-2.389
			c0.995-0.502,1.798,0.205,2.215,1.03c0.42,0.832,0.498,1.916-0.49,2.414l-1.913,0.967c-0.824,0.417-1.632-0.219-2.053-1.05
			c-0.442-0.875-0.446-1.799,0.263-2.229l0.17,0.337c-0.505,0.303-0.497,1.021-0.133,1.74c0.335,0.662,0.979,1.176,1.585,0.869
			L11.675,116.952z M11.004,113.806c-0.719,0.363-0.664,1.277-0.349,1.902c0.316,0.625,1.02,1.228,1.742,0.87
			c0.791-0.392,0.652-1.287,0.337-1.912C12.418,114.042,11.804,113.402,11.004,113.806z"/>
	</g>
	<g>
		<path fill="#FFFFFF" d="M9.186,52.293l-1.177,2.953l-0.325-0.129l1.322-3.318l0.304,0.068l3.282,4.174l-0.158,0.396L9.186,52.293z
			"/>
	</g>
	<g>
		<path fill="#FFFFFF" d="M52.672,12.377c-0.264-0.617,0.049-1.238,0.53-1.573c-0.591,0.062-1.145-0.074-1.387-0.643
			c-0.402-0.939,0.477-1.666,1.255-1.999c0.773-0.33,1.896-0.483,2.312,0.474c0.242,0.567-0.067,1.088-0.526,1.475
			c0.574-0.116,1.275,0.079,1.531,0.678c0.416,0.973-0.475,1.72-1.306,2.075S53.094,13.347,52.672,12.377z M52.157,10.016
			c0.294,0.689,1.278,0.497,1.819,0.266c0.535-0.229,1.359-0.811,1.065-1.5c-0.309-0.721-1.298-0.557-1.845-0.322
			C52.649,8.694,51.84,9.276,52.157,10.016z M53.019,12.229c0.32,0.747,1.388,0.535,1.922,0.307
			c0.527-0.226,1.418-0.852,1.105-1.602c-0.322-0.753-1.421-0.578-1.943-0.355C53.576,10.804,52.689,11.458,53.019,12.229z"/>
	</g>
</g>
</svg>
