<?xml version="1.0" encoding="utf-8"?>
<!-- Generator: Adobe Illustrator 15.0.0, SVG Export Plug-In . SVG Version: 6.00 Build 0)  -->
<!DOCTYPE svg PUBLIC "-//W3C//DTD SVG 1.1//EN" "http://www.w3.org/Graphics/SVG/1.1/DTD/svg11.dtd">
<svg version="1.1" id="圖層_1" xmlns="http://www.w3.org/2000/svg" xmlns:xlink="http://www.w3.org/1999/xlink" x="0px" y="0px"
	 width="173.667px" height="100.703px" viewBox="0 0 173.667 100.703" enable-background="new 0 0 173.667 100.703"
	 xml:space="preserve">
<g>
	<g>
		<path fill="#FFFFFF" d="M87.182,9.16l0.824-0.006l0.019-4.236l-0.824,0.004l0.001-0.336l1.202-0.006l-0.02,4.572l0.824-0.004
			l-0.001,0.328l-2.026,0.012L87.182,9.16z"/>
	</g>
	<g>
		<defs>
			<rect id="SVGID_1_" x="-3.5" y="-1.662" width="180.667" height="90.021"/>
		</defs>
		<clipPath id="SVGID_2_">
			<use xlink:href="#SVGID_1_"  overflow="visible"/>
		</clipPath>
		<g clip-path="url(#SVGID_2_)">
			<g id="XMLID_21_">
				<g>
					<path fill="#ED7085" d="M154.183,49.702c7.036,12.211,10.355,25.531,10.331,38.664l-0.015-0.004l-77.297-0.064l38.701-66.917
						l0.01-0.005C137.296,27.935,147.152,37.501,154.183,49.702z"/>
					<path fill="#D8BD4A" d="M125.913,21.376l-0.01,0.005L87.202,88.298l-38.596-66.98C73.396,7.032,102.8,8.029,125.913,21.376z"/>
					<path fill="#32AAB7" d="M48.606,21.317l38.596,66.98L9.899,88.226C9.942,61.536,23.825,35.597,48.606,21.317z"/>
				</g>
				<g>
				</g>
			</g>
			
				<circle fill="none" stroke="#FFFFFF" stroke-width="0.27" stroke-linecap="round" stroke-linejoin="round" cx="87.21" cy="88.293" r="73.436"/>
		</g>
		<g clip-path="url(#SVGID_2_)">
			<path fill="none" stroke="#FFFFFF" stroke-width="0.75" stroke-miterlimit="10" d="M160.892,45.836
				c23.449,40.693,9.469,92.689-31.226,116.137c-40.693,23.451-92.689,9.473-116.138-31.223
				c-23.45-40.693-9.47-92.691,31.223-116.141C85.446-8.84,137.443,5.141,160.892,45.836z"/>
			
				<line fill="none" stroke="#FFFFFF" stroke-width="0.75" stroke-miterlimit="10" x1="126.695" y1="156.816" x2="129.667" y2="161.973"/>
			
				<line fill="none" stroke="#FFFFFF" stroke-width="0.75" stroke-miterlimit="10" x1="44.751" y1="14.609" x2="47.725" y2="19.77"/>
			
				<line fill="none" stroke="#FFFFFF" stroke-width="0.75" stroke-miterlimit="10" x1="47.604" y1="156.76" x2="44.629" y2="161.904"/>
			
				<line fill="none" stroke="#FFFFFF" stroke-width="0.75" stroke-miterlimit="10" x1="129.792" y1="14.682" x2="126.816" y2="19.824"/>
			<path fill="none" stroke="#FFFFFF" stroke-width="0.75" stroke-miterlimit="10" d="M87.21,88.293"/>
		</g>
		<g clip-path="url(#SVGID_2_)">
			<path fill="#FFFFFF" d="M16.136,48.445c0.39-0.561,0.957-0.691,1.566-0.691c0.924,0.002,1.914,0.432,1.917,1.518
				c0.004,1.113-0.99,1.51-1.914,1.508c-0.932-0.002-1.935-0.424-1.938-1.529l-0.007-2.145c-0.003-0.924,0.927-1.355,1.858-1.354
				c0.98,0.002,1.809,0.416,1.875,1.242h-0.378c-0.044-0.588-0.689-0.904-1.495-0.906c-0.742-0.002-1.491,0.34-1.488,1.02
				L16.136,48.445z M19.249,49.27c-0.002-0.805-0.845-1.17-1.545-1.172c-0.7,0-1.553,0.354-1.558,1.16
				c-0.004,0.883,0.858,1.164,1.559,1.166C18.405,50.426,19.251,50.166,19.249,49.27z"/>
		</g>
		<g clip-path="url(#SVGID_2_)">
			<path fill="#FFFFFF" d="M87.958,165.818l1.707,2.963l0.533-0.309l0.188,0.328l-0.534,0.307l0.553,0.959l-0.328,0.189
				l-0.552-0.959l-2.604,1.5l-0.294-0.355l0.79-4.311L87.958,165.818z M87.771,166.25l-0.752,4.055l2.318-1.336L87.771,166.25z"/>
		</g>
		<g clip-path="url(#SVGID_2_)">
			<path fill="#FFFFFF" d="M156.5,127.705c-0.5-0.885,0.245-1.596,0.955-2.006c1.008-0.58,1.842-0.406,2.213,0.221
				c0.276,0.48,0.116,1.129-0.328,1.508c0.566-0.197,1.277-0.043,1.578,0.48c0.385,0.666,0.128,1.525-0.939,2.143
				c-0.734,0.422-1.785,0.744-2.317-0.178l0.315-0.182c0.447,0.76,1.292,0.363,1.833,0.051c0.892-0.514,1.081-1.166,0.806-1.645
				c-0.256-0.443-0.974-0.65-1.847-0.148l-0.704,0.406l-0.158-0.273l0.686-0.395c0.844-0.486,1.006-1.186,0.778-1.596
				c-0.249-0.447-0.909-0.609-1.752-0.123c-0.516,0.297-1.224,0.836-0.808,1.557L156.5,127.705z"/>
		</g>
		<g clip-path="url(#SVGID_2_)">
			<path fill="#FFFFFF" d="M156.826,47.133c-0.004-1.045,0.989-1.371,1.872-1.373c0.903-0.004,1.886,0.363,1.896,1.422
				c0.003,1.002-1.003,1.41-1.872,1.414c-0.714,0.01-1.548,0.18-1.544,1.021l0.002,0.748l3.376-0.012l0.002,0.365l-3.747,0.014
				l-0.004-1.107c-0.004-1.086,0.996-1.369,1.899-1.373c0.638-0.002,1.541-0.244,1.538-1.07c-0.004-0.861-0.874-1.096-1.546-1.094
				c-0.651,0.002-1.505,0.23-1.502,1.043L156.826,47.133z"/>
		</g>
		<g clip-path="url(#SVGID_2_)">
			<path fill="#FFFFFF" d="M16.504,128.955l-1.119-1.943l2.957-1.703l0.167,0.291l-2.651,1.529l0.783,1.359l1.365-0.787
				c1.152-0.664,1.895-0.234,2.275,0.428c0.401,0.697,0.24,1.623-0.889,2.273c-0.771,0.443-1.785,0.689-2.338-0.254l0.328-0.189
				c0.427,0.74,1.25,0.445,1.82,0.115c0.91-0.523,1.078-1.186,0.753-1.75c-0.294-0.512-0.843-0.873-1.782-0.332L16.504,128.955z"/>
		</g>
	</g>
	<circle opacity="0.24" fill="#717071" cx="90.856" cy="89.614" r="10.749"/>
	<circle fill="#FFFFFF" cx="87.209" cy="88.293" r="10.75"/>
	<circle fill="#888888" cx="87.209" cy="88.293" r="3.901"/>
	<circle fill="#F7F7F7" cx="87.209" cy="88.294" r="2.58"/>
</g>
</svg>
