<?xml version="1.0" encoding="utf-8"?>
<!-- Generator: Adobe Illustrator 15.0.0, SVG Export Plug-In . SVG Version: 6.00 Build 0)  -->
<!DOCTYPE svg PUBLIC "-//W3C//DTD SVG 1.1//EN" "http://www.w3.org/Graphics/SVG/1.1/DTD/svg11.dtd">
<svg version="1.1" id="Capa_1" xmlns="http://www.w3.org/2000/svg" xmlns:xlink="http://www.w3.org/1999/xlink" x="0px" y="0px"
	 width="604.5px" height="600px" viewBox="95.5 0 604.5 600" enable-background="new 95.5 0 604.5 600" xml:space="preserve">
<g>
	<g>
		<path fill="#E84433" d="M398,600c-27.6,0-54.2-3.6-79.8-10.8c-25.6-7.203-49.5-17.3-71.7-30.3S204.1,530.3,185.9,512.1
			c-18.2-18.197-33.8-38.399-46.8-60.6c-13-22.202-23.1-46.1-30.3-71.701C101.6,354.2,98,327.6,98,300c0-27.6,3.6-54.2,10.8-79.8
			c7.2-25.6,17.3-49.5,30.3-71.7s28.6-42.4,46.8-60.6c18.2-18.2,38.4-33.8,60.6-46.8s46.1-23.1,71.7-30.3C343.8,3.6,370.4,0,398,0
			c41.2,0,80.1,7.9,116.7,23.7C551.3,39.5,583.1,60.9,610.1,87.9s48.4,58.8,64.2,95.4C690.1,219.9,698,258.8,698,300
			c0,27.6-3.6,54.2-10.8,79.8c-7.203,25.598-17.3,49.497-30.3,71.7c-13,22.2-28.601,42.4-46.801,60.6
			c-18.197,18.2-38.399,33.804-60.6,46.801c-22.202,13-46.1,23.1-71.702,30.3C452.2,596.4,425.6,600,398,600z M542.6,176.4H258.2
			c-2.8,0-5.2,0.9-7.2,2.7c-2,1.8-3,4.3-3,7.5v31.8c0,1.6,0.6,2.4,1.8,2.4L399.2,306l1.203,0.6c0.797,0,1.399-0.199,1.8-0.6
			l144.6-85.2c0.797-0.4,1.4-0.6,1.8-0.6c0.397,0,1-0.2,1.801-0.6c1.6,0,2.399-0.8,2.399-2.4v-30.6c0-3.2-1.001-5.7-3.003-7.5
			C547.798,177.3,545.4,176.4,542.6,176.4z M338.6,304.2c0.4-0.4,0.6-1.001,0.6-1.8c0-1.203-0.4-1.801-1.2-1.801l-85.8-49.201
			c-1.2-0.4-2.2-0.4-3,0c-0.8,0-1.2,0.6-1.2,1.8v129c0,1.203,0.6,2,1.8,2.399h1.2c0.8,0,1.2-0.199,1.2-0.6L338.6,304.2z M443,313.8
			c-0.4-1.203-1.403-1.399-3.003-0.6l-33,19.2c-4,2.399-8.197,2.399-12.6,0l-28.8-16.197c-1.2-0.8-2.2-0.8-3,0l-109.8,102
			c-0.4,0.396-0.6,1.2-0.6,2.396c0,0.4,0.4,1.001,1.2,1.801c2.4,0.8,4,1.202,4.8,1.202h281.4c0.801,0,1.604-0.399,2.4-1.202
			c0-1.601-0.2-2.598-0.6-3L443,313.8z M551,249h-2.397l-81.6,48.6c-0.797,0-1.2,0.6-1.2,1.8c-0.399,0.4-0.2,1,0.598,1.797
			L548,389.4c0.8,0.8,1.4,1.202,1.8,1.202h1.2c1.203-1.202,1.803-2,1.803-2.399V251.401C552.8,250.6,552.2,249.8,551,249z"/>
	</g>
</g>
</svg>
