<?xml version="1.0" encoding="utf-8"?>
<!-- Generator: Adobe Illustrator 15.0.0, SVG Export Plug-In . SVG Version: 6.00 Build 0)  -->
<!DOCTYPE svg PUBLIC "-//W3C//DTD SVG 1.1//EN" "http://www.w3.org/Graphics/SVG/1.1/DTD/svg11.dtd">
<svg version="1.1" id="Capa_1" xmlns="http://www.w3.org/2000/svg" xmlns:xlink="http://www.w3.org/1999/xlink" x="0px" y="0px"
	 width="582.415px" height="587.5px" viewBox="106.5 0 582.415 587.5" enable-background="new 106.5 0 582.415 587.5"
	 xml:space="preserve">
<path fill="#E84433" d="M538.463,364.337l-17.375,13.672c-0.047,0.03-0.09,0.056-0.129,0.083
	c-25.381,19.811-61.342,20.576-101.312,2.236c-34.126-15.638-68.658-44.221-97.241-80.486
	c-28.583-36.229-48.319-76.502-55.573-113.33c-8.4-42.634,0.448-77.082,24.904-97.258c0.171-0.134,17.874-14.118,17.874-14.118
	c8.001-6.309,19.583-4.908,25.891,3.064l45.097,57.22c6.306,7.989,4.926,19.58-3.065,25.869l-17.373,13.719
	c-7.997,6.306-18.992,38.422,15.807,82.62c34.822,44.138,69.189,40.545,77.197,34.203l17.369-13.673
	c8.008-6.295,19.594-4.945,25.9,3.065l45.09,57.182C547.828,346.413,546.459,357.989,538.463,364.337z M628.547,5.084H166.283
	c-31.78,0-57.783,26.002-57.783,57.783v520.048l115.566-115.566h404.481c31.781,0,57.783-26.003,57.783-57.783V62.867
	C686.33,31.087,660.328,5.084,628.547,5.084z"/>
</svg>
