<?xml version="1.0" encoding="utf-8"?>
<!-- Generator: Adobe Illustrator 15.0.0, SVG Export Plug-In . SVG Version: 6.00 Build 0)  -->
<!DOCTYPE svg PUBLIC "-//W3C//DTD SVG 1.1//EN" "http://www.w3.org/Graphics/SVG/1.1/DTD/svg11.dtd">
<svg version="1.1" id="Layer_1" xmlns="http://www.w3.org/2000/svg" xmlns:xlink="http://www.w3.org/1999/xlink" x="0px" y="0px"
	 width="171.154px" height="170.968px" viewBox="0 0 171.154 170.968" enable-background="new 0 0 171.154 170.968"
	 xml:space="preserve">
<g>
	<g>
		<g id="XMLID_14_">
			<g>
				<path fill="#32AAB7" d="M85.581,85.495v77.294c-42.694,0-77.305-34.611-77.305-77.294H85.581z"/>
				<path fill="#E58E53" d="M85.581,8.19v77.305H8.276C8.276,42.801,42.887,8.19,85.581,8.19z"/>
				<path fill="#ED7085" d="M85.581,85.495V8.19c42.693,0,77.305,34.611,77.305,77.305H85.581z"/>
				<path fill="#66B585" d="M85.581,162.789V85.495h77.305C162.886,128.178,128.274,162.789,85.581,162.789z"/>
			</g>
			<g>
			</g>
		</g>
		
			<circle fill="none" stroke="#FFFFFF" stroke-width="0.27" stroke-linecap="round" stroke-linejoin="round" cx="85.578" cy="85.485" r="73.436"/>
	</g>
	<g>
		<circle fill="none" stroke="#FFFFFF" stroke-width="0.75" stroke-miterlimit="10" cx="85.577" cy="85.485" r="85.04"/>
		
			<line fill="none" stroke="#FFFFFF" stroke-width="0.75" stroke-miterlimit="10" x1="164.664" y1="85.485" x2="170.617" y2="85.485"/>
		<line fill="none" stroke="#FFFFFF" stroke-width="0.75" stroke-miterlimit="10" x1="0.538" y1="85.485" x2="6.491" y2="85.485"/>
		
			<line fill="none" stroke="#FFFFFF" stroke-width="0.75" stroke-miterlimit="10" x1="85.578" y1="164.57" x2="85.578" y2="170.523"/>
		<line fill="none" stroke="#FFFFFF" stroke-width="0.75" stroke-miterlimit="10" x1="85.578" y1="0.444" x2="85.578" y2="6.397"/>
	</g>
	<g>
		<path fill="#FFFFFF" d="M139.123,28.239h0.826v-4.237h-0.826v-0.336h1.205v4.573h0.826v0.329h-2.031V28.239z"/>
	</g>
	<g>
		<path fill="#FFFFFF" d="M28.542,24.968c0-1.044,0.994-1.366,1.877-1.366c0.903,0,1.884,0.371,1.891,1.429
			c0,1.002-1.008,1.408-1.877,1.408c-0.714,0.007-1.548,0.175-1.548,1.016v0.749h3.376v0.364h-3.747v-1.106
			c0-1.086,1.002-1.366,1.905-1.366c0.638,0,1.541-0.238,1.541-1.064c0-0.861-0.869-1.1-1.541-1.1c-0.651,0-1.506,0.225-1.506,1.037
			H28.542z"/>
	</g>
	<g>
		<path fill="#FFFFFF" d="M26.396,141.196c0.008-1.016,1.009-1.262,1.828-1.262c1.163,0,1.8,0.568,1.808,1.297
			c0,0.553-0.463,1.035-1.037,1.141c0.589,0.113,1.128,0.604,1.128,1.205c0,0.77-0.651,1.387-1.884,1.387
			c-0.848,0-1.919-0.244-1.919-1.311h0.363c0.008,0.883,0.938,0.961,1.562,0.961c1.029,0,1.52-0.471,1.52-1.023
			c0-0.512-0.519-1.051-1.526-1.051h-0.812v-0.314h0.791c0.974,0,1.464-0.525,1.471-0.994c0.007-0.512-0.483-0.98-1.457-0.98
			c-0.595,0-1.478,0.111-1.478,0.945H26.396z"/>
	</g>
	<g>
		<path fill="#FFFFFF" d="M144.646,138.999v3.418h0.615v0.377h-0.615v1.107h-0.379v-1.107h-3.004l-0.078-0.455l2.838-3.34H144.646z
			 M144.268,139.278l-2.676,3.139h2.676V139.278z"/>
	</g>
	<g>
		<g>
			
				<circle fill="none" stroke="#FFFFFF" stroke-width="0.27" stroke-linecap="round" stroke-linejoin="round" cx="85.577" cy="85.485" r="73.436"/>
		</g>
		<g>
			<circle opacity="0.24" fill="#717071" cx="88.478" cy="88.923" r="14.19"/>
			<g>
				<circle fill="#FFFFFF" cx="85.578" cy="85.483" r="14.191"/>
				<circle fill="#DD3E3A" cx="85.577" cy="85.483" r="12.899"/>
				<g>
					<path fill="#FFFFFF" d="M83.268,83.511c-0.621-0.594-1.545-0.924-2.35-0.924c-1.979,0-3.181,1.505-3.181,3.405
						c0,1.518,0.884,3.089,3.181,3.089c0.727,0,1.359-0.158,2.086-0.739v-1.637h-2.363v-1.558h3.96v3.894
						c-0.911,1.043-2.06,1.663-3.683,1.663c-3.471,0-4.883-2.283-4.883-4.712c0-2.6,1.623-5.002,4.883-5.002
						c1.24,0,2.481,0.475,3.432,1.412L83.268,83.511z"/>
					<path fill="#FFFFFF" d="M95.107,85.927c-0.025,2.389-1.492,4.777-4.738,4.777s-4.752-2.336-4.752-4.765s1.559-4.87,4.752-4.87
						C93.551,81.069,95.135,83.511,95.107,85.927z M87.334,85.966c0.039,1.518,0.857,3.142,3.035,3.142s2.996-1.637,3.023-3.154
						c0.025-1.558-0.846-3.3-3.023-3.3S87.295,84.408,87.334,85.966z"/>
				</g>
			</g>
		</g>
	</g>
</g>
</svg>
