<?xml version="1.0" encoding="utf-8"?>
<!-- Generator: Adobe Illustrator 15.0.0, SVG Export Plug-In . SVG Version: 6.00 Build 0)  -->
<!DOCTYPE svg PUBLIC "-//W3C//DTD SVG 1.1//EN" "http://www.w3.org/Graphics/SVG/1.1/DTD/svg11.dtd">
<svg version="1.1" id="Layer_1" xmlns="http://www.w3.org/2000/svg" xmlns:xlink="http://www.w3.org/1999/xlink" x="0px" y="0px"
	 width="171.154px" height="170.968px" viewBox="0 0 171.154 170.968" enable-background="new 0 0 171.154 170.968"
	 xml:space="preserve">
<g>
	<g id="XMLID_15_">
		<g>
			<path fill="#D8BD4A" d="M85.582,85.488l73.51-23.88l0.03-0.01c2.439,7.52,3.76,15.55,3.76,23.89c0,25.72-12.55,48.5-31.87,62.54
				L85.582,85.488z"/>
			<path fill="#32AAB7" d="M85.582,8.188v77.3l-73.521-23.88l-0.03-0.01C22.102,30.598,51.222,8.188,85.582,8.188z"/>
			<path fill="#E58E53" d="M85.582,162.788c-16.98,0-32.68-5.47-45.44-14.76l45.44-62.54l45.43,62.54
				C118.262,157.318,102.562,162.788,85.582,162.788z"/>
			<path fill="#ED7085" d="M85.582,85.488l-45.44,62.54c-19.32-14.04-31.87-36.82-31.87-62.54c0-8.34,1.32-16.37,3.76-23.89
				l0.03,0.01L85.582,85.488z"/>
			<path fill="#66B585" d="M159.092,61.608l-73.51,23.88v-77.3c34.35,0,63.47,22.41,73.54,53.41L159.092,61.608z"/>
		</g>
		<g>
		</g>
	</g>
	<g>
		
			<circle fill="none" stroke="#FFFFFF" stroke-width="0.27" stroke-linecap="round" stroke-linejoin="round" cx="85.571" cy="85.482" r="73.437"/>
	</g>
	<g>
		<circle fill="none" stroke="#FFFFFF" stroke-width="0.75" stroke-miterlimit="10" cx="85.577" cy="85.484" r="85.04"/>
		<line fill="none" stroke="#FFFFFF" stroke-width="0.75" stroke-miterlimit="10" x1="85.578" y1="0.444" x2="85.578" y2="6.395"/>
		
			<line fill="none" stroke="#FFFFFF" stroke-width="0.75" stroke-miterlimit="10" x1="135.562" y1="154.283" x2="132.068" y2="149.472"/>
		
			<line fill="none" stroke="#FFFFFF" stroke-width="0.75" stroke-miterlimit="10" x1="35.592" y1="154.283" x2="39.091" y2="149.467"/>
		<line fill="none" stroke="#FFFFFF" stroke-width="0.75" stroke-miterlimit="10" x1="4.701" y1="59.207" x2="10.355" y2="61.044"/>
		
			<line fill="none" stroke="#FFFFFF" stroke-width="0.75" stroke-miterlimit="10" x1="166.455" y1="59.207" x2="160.811" y2="61.039"/>
	</g>
	<g>
		<path fill="#FFFFFF" d="M134.562,17.411v3.418h0.617v0.378h-0.617v1.106h-0.377v-1.106h-3.006l-0.076-0.455l2.836-3.341H134.562z
			 M134.186,17.691l-2.676,3.138h2.676V17.691z"/>
	</g>
	<g>
		<path fill="#FFFFFF" d="M35.057,20.652v-2.241h3.411v0.336h-3.061v1.568h1.576c1.33,0,1.758,0.743,1.758,1.506
			c0,0.806-0.603,1.527-1.905,1.527c-0.89,0-1.891-0.294-1.898-1.387h0.379c0,0.854,0.861,1.009,1.52,1.009
			c1.051,0,1.526-0.49,1.526-1.142c0-0.589-0.294-1.177-1.379-1.177H35.057z"/>
	</g>
	<g>
		<path fill="#FFFFFF" d="M9.301,116.426h0.826v-4.236H9.301v-0.336h1.204v4.572h0.827v0.33H9.301V116.426z"/>
	</g>
	<g>
		<path fill="#FFFFFF" d="M161.111,105.383c0.008-1.016,1.008-1.26,1.828-1.26c1.162,0,1.799,0.566,1.807,1.295
			c0,0.555-0.463,1.037-1.037,1.143c0.59,0.111,1.129,0.602,1.129,1.205c0,0.77-0.652,1.387-1.885,1.387
			c-0.848,0-1.918-0.246-1.918-1.311h0.363c0.008,0.883,0.938,0.959,1.562,0.959c1.029,0,1.52-0.469,1.52-1.021
			c0-0.512-0.52-1.051-1.527-1.051h-0.812v-0.316h0.791c0.975,0,1.465-0.525,1.471-0.994c0.008-0.512-0.482-0.98-1.457-0.98
			c-0.594,0-1.477,0.113-1.477,0.945H161.111z"/>
	</g>
	<g>
		<path fill="#FFFFFF" d="M81.992,165.004c0-1.045,0.994-1.367,1.877-1.367c0.903,0,1.883,0.371,1.891,1.43
			c0,1.002-1.008,1.408-1.877,1.408c-0.714,0.006-1.548,0.174-1.548,1.016v0.748h3.376v0.365h-3.748v-1.107
			c0-1.086,1.002-1.365,1.905-1.365c0.638,0,1.541-0.238,1.541-1.064c0-0.861-0.869-1.1-1.541-1.1c-0.651,0-1.506,0.225-1.506,1.037
			H81.992z"/>
	</g>
	<g>
		<g>
			<circle opacity="0.24" fill="#717071" cx="88.477" cy="88.922" r="14.191"/>
			<g>
				<circle fill="#FFFFFF" cx="85.578" cy="85.482" r="14.192"/>
				<circle fill="#DD3E3A" cx="85.577" cy="85.482" r="12.9"/>
				<g>
					<path fill="#FFFFFF" d="M83.267,83.51c-0.62-0.594-1.544-0.924-2.35-0.924c-1.979,0-3.18,1.505-3.18,3.405
						c0,1.518,0.884,3.089,3.18,3.089c0.727,0,1.359-0.158,2.086-0.739v-1.637h-2.362v-1.558h3.96v3.894
						c-0.911,1.043-2.06,1.663-3.684,1.663c-3.471,0-4.883-2.283-4.883-4.712c0-2.6,1.623-5.002,4.883-5.002
						c1.241,0,2.482,0.475,3.432,1.412L83.267,83.51z"/>
					<path fill="#FFFFFF" d="M95.107,85.926c-0.025,2.389-1.492,4.777-4.738,4.777s-4.752-2.336-4.752-4.765s1.559-4.87,4.752-4.87
						C93.551,81.068,95.135,83.51,95.107,85.926z M87.334,85.965c0.039,1.518,0.857,3.142,3.035,3.142s2.996-1.637,3.023-3.154
						c0.025-1.558-0.846-3.3-3.023-3.3S87.295,84.407,87.334,85.965z"/>
				</g>
			</g>
		</g>
	</g>
</g>
</svg>
